<?xml version="1.0" encoding="utf-8"?>
<!-- Generator: Adobe Illustrator 16.0.0, SVG Export Plug-In . SVG Version: 6.00 Build 0)  -->
<!DOCTYPE svg PUBLIC "-//W3C//DTD SVG 1.1//EN" "http://www.w3.org/Graphics/SVG/1.1/DTD/svg11.dtd">
<svg version="1.1" id="Layer_1" xmlns="http://www.w3.org/2000/svg" xmlns:xlink="http://www.w3.org/1999/xlink" x="0px" y="0px"
	 width="611.834px" height="706.506px" viewBox="0.083 42.123 611.834 706.506"
	 enable-background="new 0.083 42.123 611.834 706.506" xml:space="preserve">
<polygon id="fill" fill="#E1F0FB" points="611.917,572.024 306,748.629 0.083,572.021 0.083,218.728 306,42.123 611.917,218.728 "/>
<linearGradient id="gradient_1_" gradientUnits="userSpaceOnUse" x1="305.6709" y1="404.7256" x2="305.6709" y2="134.4175" gradientTransform="matrix(1 0 0 1 0 -80)">
	<stop  offset="0" style="stop-color:#FFFFFF;stop-opacity:0"/>
	<stop  offset="1" style="stop-color:#FFFFFF"/>
</linearGradient>
<path id="gradient" opacity="0.2" fill="url(#gradient_1_)" d="M305.591,54.417L59.22,197.048
	c36.979,74.535,133.292,127.677,246.28,127.677c113.336,0,209.895-53.47,246.621-128.366L305.591,54.417z"/>
<g id="img">
</g>
<path id="outline" fill="#EC6B00" d="M587.52,204.656L356.209,71.099L306,42.123l-50.209,28.976L24.48,204.656L0.083,218.728
	v353.293l24.396,14.071l234.142,135.225L306,748.629l47.378-27.312L587.52,586.095l24.397-14.07V218.728L587.52,204.656z
	 M587.52,558.783L306,721.317L24.48,558.783v-325.15L306,71.099l0,0l281.52,162.534V558.783z"/>
<path fill="#FDBF07" d="M489.667,311.753"/>
<g display="none">
	<path display="inline" fill="#1A237E" d="M119.517,483.303v20.482h16.787v17.249h-16.787v27.413c0,9.087,2.31,13.245,9.24,13.245
		c3.234,0,4.774-0.154,6.931-0.616l0.154,17.711c-2.926,1.078-8.625,2.002-15.093,2.002c-7.546,0-13.86-2.618-17.711-6.469
		c-4.312-4.466-6.468-11.704-6.468-22.331v-30.955H86.56v-17.249h10.01v-14.169L119.517,483.303z"/>
	<path display="inline" fill="#1A237E" d="M149.698,558.766c4.313,2.618,13.245,5.545,20.175,5.545c7.084,0,10.01-2.311,10.01-6.161
		c0-4.004-2.31-5.852-10.935-8.778c-15.708-5.082-21.715-13.706-21.561-22.484c0-14.169,12.013-24.796,30.647-24.796
		c8.778,0,16.479,2.156,21.099,4.467l-4.004,16.017c-3.388-1.694-10.01-4.158-16.325-4.158c-5.698,0-8.932,2.311-8.932,6.006
		c0,3.696,2.926,5.545,12.167,8.778c14.322,4.774,20.175,12.167,20.329,23.102c0,14.169-10.935,24.487-32.495,24.487
		c-9.856,0-18.635-2.311-24.333-5.391L149.698,558.766z"/>
	<path display="inline" fill="#1A237E" d="M225.003,490.849c-5.083,0-8.471-4.004-8.471-8.778s3.542-8.624,8.779-8.624
		c5.236,0,8.624,3.85,8.624,8.624s-3.388,8.778-8.778,8.778H225.003z M218.535,579.095v-74.539h13.552v74.539H218.535z"/>
	<path display="inline" fill="#1A237E" d="M254.57,469.75h13.552v46.664h0.308c4.774-8.316,13.399-13.553,25.411-13.553
		c18.482,0,31.417,15.4,31.417,37.886c0,26.797-16.941,40.042-33.573,40.042c-10.781,0-19.251-4.158-24.949-14.015h-0.308
		l-0.77,12.32h-11.705c0.462-5.082,0.616-12.629,0.616-19.251V469.75z M268.122,549.218c0,1.693,0.154,3.388,0.462,4.928
		c2.618,9.395,10.626,15.863,20.329,15.863c14.323,0,22.639-11.551,22.639-28.646c0-15.093-7.7-27.876-22.177-27.876
		c-9.24,0-17.865,6.469-20.483,16.633c-0.462,1.694-0.77,3.543-0.77,5.698V549.218z"/>
	<path display="inline" fill="#1A237E" d="M342.192,469.75h13.553v46.664h0.309c4.773-8.316,13.398-13.553,25.412-13.553
		c18.48,0,31.416,15.4,31.416,37.886c0,26.797-16.939,40.042-33.572,40.042c-10.781,0-19.252-4.158-24.949-14.015h-0.309
		l-0.77,12.32h-11.705c0.463-5.082,0.615-12.629,0.615-19.251V469.75z M355.745,549.218c0,1.693,0.154,3.388,0.463,4.928
		c2.617,9.395,10.627,15.863,20.328,15.863c14.324,0,22.639-11.551,22.639-28.646c0-15.093-7.699-27.876-22.176-27.876
		c-9.24,0-17.865,6.469-20.482,16.633c-0.463,1.694-0.771,3.543-0.771,5.698V549.218z"/>
	<path display="inline" fill="#1A237E" d="M429.817,469.75h13.553v109.345h-13.553V469.75z"/>
	<path display="inline" fill="#1A237E" d="M473.552,544.135c0.309,18.327,11.859,25.874,25.412,25.874
		c9.703,0,15.709-1.694,20.637-3.696l2.465,9.548c-4.775,2.156-13.092,4.774-24.949,4.774c-22.793,0-36.654-15.247-36.654-37.578
		c0-22.639,13.398-40.35,35.113-40.35c24.334,0,30.648,21.407,30.648,35.114c0,2.771-0.154,4.928-0.463,6.468L473.552,544.135z
		 M513.132,534.433c0.154-8.471-3.541-22.022-18.635-22.022c-13.859,0-19.713,12.628-20.791,22.022H513.132z"/>
</g>
<g>
	<path fill="#1A237E" d="M93.787,517.726v11.369h12.349v6.566H93.787v25.58c0,5.88,1.666,9.213,6.468,9.213
		c2.352,0,3.724-0.196,4.999-0.588l0.392,6.566c-1.667,0.588-4.313,1.176-7.645,1.176c-4.019,0-7.253-1.372-9.311-3.626
		c-2.352-2.646-3.332-6.861-3.332-12.447v-25.874h-7.351v-6.566h7.351v-8.723L93.787,517.726z"/>
	<path fill="#1A237E" d="M114.659,567.808c2.646,1.568,7.154,3.332,11.467,3.332c6.174,0,9.115-3.038,9.115-7.057
		c0-4.116-2.45-6.37-8.723-8.723c-8.625-3.136-12.643-7.742-12.643-13.427c0-7.645,6.272-13.917,16.367-13.917
		c4.802,0,9.017,1.274,11.565,2.94l-2.058,6.175c-1.862-1.078-5.292-2.744-9.703-2.744c-5.097,0-7.841,2.939-7.841,6.468
		c0,4.019,2.744,5.782,8.919,8.135c8.134,3.038,12.447,7.154,12.447,14.309c0,8.429-6.566,14.31-17.642,14.31
		c-5.194,0-9.997-1.372-13.329-3.332L114.659,567.808z"/>
	<path fill="#1A237E" d="M158.759,520.372c-3.234,0-5.391-2.549-5.391-5.586c0-3.039,2.254-5.488,5.586-5.488
		c3.333,0,5.488,2.449,5.488,5.488c0,3.037-2.156,5.586-5.586,5.586H158.759z M154.643,576.53v-47.436h8.625v47.436H154.643z"/>
	<path fill="#1A237E" d="M177.574,506.945h8.625v29.696h0.196c3.038-5.293,8.527-8.625,16.171-8.625
		c11.761,0,19.993,9.801,19.993,24.11c0,17.053-10.781,25.481-21.365,25.481c-6.861,0-12.251-2.646-15.877-8.919h-0.196l-0.49,7.841
		h-7.448c0.294-3.234,0.392-8.036,0.392-12.251V506.945z M186.199,557.517c0,1.078,0.098,2.156,0.294,3.137
		c1.666,5.979,6.762,10.095,12.937,10.095c9.115,0,14.407-7.351,14.407-18.229c0-9.605-4.9-17.739-14.113-17.739
		c-5.88,0-11.369,4.116-13.035,10.585c-0.294,1.078-0.49,2.254-0.49,3.626V557.517z"/>
	<path fill="#1A237E" d="M233.334,506.945h8.625v29.696h0.196c3.038-5.293,8.527-8.625,16.171-8.625
		c11.761,0,19.993,9.801,19.993,24.11c0,17.053-10.781,25.481-21.365,25.481c-6.861,0-12.251-2.646-15.877-8.919h-0.196l-0.49,7.841
		h-7.448c0.294-3.234,0.392-8.036,0.392-12.251V506.945z M241.959,557.517c0,1.078,0.098,2.156,0.294,3.137
		c1.666,5.979,6.762,10.095,12.937,10.095c9.115,0,14.407-7.351,14.407-18.229c0-9.605-4.9-17.739-14.113-17.739
		c-5.88,0-11.369,4.116-13.035,10.585c-0.294,1.078-0.49,2.254-0.49,3.626V557.517z"/>
	<path fill="#1A237E" d="M289.095,506.945h8.625v69.585h-8.625V506.945z"/>
	<path fill="#1A237E" d="M316.927,554.282c0.196,11.663,7.547,16.466,16.171,16.466c6.175,0,9.997-1.078,13.134-2.353l1.567,6.076
		c-3.038,1.372-8.33,3.039-15.877,3.039c-14.505,0-23.325-9.703-23.325-23.914c0-14.407,8.526-25.678,22.346-25.678
		c15.484,0,19.503,13.623,19.503,22.346c0,1.764-0.098,3.136-0.294,4.116L316.927,554.282z M342.115,548.108
		c0.098-5.391-2.255-14.016-11.859-14.016c-8.82,0-12.545,8.037-13.23,14.016H342.115z"/>
	<path fill="#1A237E" d="M402.09,506.945v57.334c0,4.215,0.099,9.017,0.393,12.251h-7.742l-0.393-8.232h-0.196
		c-2.646,5.292-8.33,9.311-16.073,9.311c-11.467,0-20.385-9.703-20.385-24.109c-0.099-15.877,9.801-25.482,21.268-25.482
		c7.351,0,12.251,3.43,14.309,7.154h0.196v-28.226H402.09z M393.466,548.402c0-1.176-0.099-2.548-0.393-3.725
		c-1.273-5.39-5.979-9.898-12.446-9.898c-8.919,0-14.211,7.841-14.211,18.229c0,9.702,4.802,17.641,14.015,17.641
		c5.782,0,11.075-3.92,12.643-10.29c0.294-1.177,0.393-2.353,0.393-3.725V548.402z"/>
	<path fill="#1A237E" d="M449.815,565.161c0,4.116,0.196,8.135,0.686,11.369h-7.742l-0.784-5.979h-0.294
		c-2.548,3.725-7.742,7.057-14.505,7.057c-9.604,0-14.505-6.763-14.505-13.623c0-11.467,10.192-17.739,28.52-17.641v-0.98
		c0-3.92-1.078-11.075-10.78-10.977c-4.509,0-9.115,1.273-12.447,3.527l-1.96-5.782c3.92-2.45,9.702-4.116,15.681-4.116
		c14.604,0,18.132,9.898,18.132,19.405V565.161z M441.387,552.322c-9.409-0.195-20.092,1.471-20.092,10.683
		c0,5.685,3.725,8.233,8.037,8.233c6.272,0,10.29-3.921,11.662-7.939c0.295-0.882,0.393-1.861,0.393-2.744V552.322z"/>
	<path fill="#1A237E" d="M473.627,517.726v11.369h12.35v6.566h-12.35v25.58c0,5.88,1.666,9.213,6.469,9.213
		c2.353,0,3.725-0.196,4.998-0.588l0.393,6.566c-1.666,0.588-4.313,1.176-7.645,1.176c-4.019,0-7.253-1.372-9.311-3.626
		c-2.353-2.646-3.333-6.861-3.333-12.447v-25.874h-7.351v-6.566h7.351v-8.723L473.627,517.726z"/>
	<path fill="#1A237E" d="M529.097,565.161c0,4.116,0.196,8.135,0.686,11.369h-7.742l-0.784-5.979h-0.294
		c-2.548,3.725-7.742,7.057-14.505,7.057c-9.604,0-14.505-6.763-14.505-13.623c0-11.467,10.192-17.739,28.52-17.641v-0.98
		c0-3.92-1.078-11.075-10.78-10.977c-4.509,0-9.115,1.273-12.447,3.527l-1.96-5.782c3.92-2.45,9.702-4.116,15.681-4.116
		c14.604,0,18.132,9.898,18.132,19.405V565.161z M520.668,552.322c-9.409-0.195-20.092,1.471-20.092,10.683
		c0,5.685,3.725,8.233,8.037,8.233c6.272,0,10.29-3.921,11.662-7.939c0.295-0.882,0.393-1.861,0.393-2.744V552.322z"/>
</g>
<g>
	<g>
		<path fill="#EC6B00" d="M302.723,254.29v5.532h-1.937c-1.81,0-3.276,1.467-3.276,3.276v33.279c0,1.811,1.467,3.277,3.276,3.277
			h1.937v43.399c-6.379,1.49-11.15,7.211-11.15,14.039c0,7.955,6.473,14.428,14.429,14.428c7.955,0,14.427-6.473,14.427-14.428
			c0-6.828-4.771-12.549-11.15-14.039v-43.399h1.936c1.81,0,3.277-1.467,3.277-3.277v-33.279c0-1.81-1.468-3.276-3.277-3.276h-1.936
			v-5.532H302.723z M304.063,266.375h3.872v26.726h-3.872V266.375z M313.873,357.093c0,4.342-3.531,7.875-7.872,7.875
			c-4.342,0-7.874-3.533-7.874-7.875s3.532-7.874,7.874-7.874C310.342,349.219,313.873,352.751,313.873,357.093z"/>
		<path fill="#EC6B00" d="M326.996,254.29v15.003h-1.937c-1.81,0-3.276,1.468-3.276,3.277v33.279c0,1.81,1.467,3.277,3.276,3.277
			h7.15v-6.555h-3.873v-26.725h3.873v-21.559L326.996,254.29z"/>
		<path fill="#EC6B00" d="M279.79,254.288v21.559h3.873v26.725h-3.873v6.555h7.15c1.81,0,3.276-1.468,3.276-3.277V272.57
			c0-1.81-1.467-3.277-3.276-3.277h-1.937V254.29L279.79,254.288z"/>
	</g>
	<path fill="#1A237E" d="M362.159,157.287c-0.622-0.75-1.546-1.184-2.521-1.184h-9.176c-1.963-16.087-21.147-28.757-44.463-28.757
		c-23.314,0-42.499,12.67-44.463,28.757h-9.176c-0.975,0-1.898,0.434-2.521,1.184c-0.623,0.749-0.88,1.737-0.7,2.695l3.641,19.488
		c0.291,1.551,1.645,2.675,3.222,2.675h5.19v234.293l-7.099,14.363c-0.019,0.037-0.339,0.535-0.339,1.451v11.816
		c0,1.809,1.467,3.277,3.277,3.277h97.934c1.811,0,3.277-1.469,3.277-3.277v-11.816c0-0.885-0.32-1.414-0.339-1.451l-7.099-14.361
		V182.146h5.19c1.578,0,2.931-1.124,3.222-2.675l3.641-19.488C363.038,159.024,362.782,158.037,362.159,157.287z M306,133.9
		c19.596,0,35.778,9.735,37.855,22.203h-6.763c-3.358-8.334-14.418-16.083-31.073-16.187c-16.652-0.133-27.75,7.694-31.119,16.187
		h-6.756C270.223,143.636,286.404,133.9,306,133.9z M345.493,420.481l4.198,8.496h-87.385l4.199-8.496H345.493z M260.31,440.792
		v-5.262h91.381v5.262H260.31z M344.253,413.929h-76.505V182.146h5.488v219.031l0,0l0,0c0,1.811,1.467,3.277,3.276,3.277h58.975
		c1.81,0,3.276-1.467,3.276-3.277V182.146h5.489V413.929L344.253,413.929z M282.699,182.146c1.352,0,2.564-0.829,3.055-2.088
		c3.174-8.149,11.311-13.626,20.246-13.626s17.072,5.476,20.248,13.627c0.49,1.259,1.703,2.087,3.053,2.087h2.909v6.777h-12.435
		c-2.666-5.815-7.966-9.59-13.775-9.59s-11.109,3.774-13.773,9.59h-12.438v-6.777H282.699z M279.79,397.899l0.001-143.438
		l22.932-0.011h6.555h22.89l0.043,54.837v88.612H279.79z M279.791,247.896v-52.42h52.419v52.42H279.791z M306,185.887
		c2.279,0,4.449,1.133,6.092,3.036h-12.184C301.551,187.02,303.722,185.887,306,185.887z M353.275,175.592h-21.838
		c-4.652-9.484-14.598-15.714-25.438-15.714s-20.786,6.229-25.438,15.714h-21.838l-2.418-12.935h21.018
		c1.596,0,2.922-1.141,3.215-2.651c1.115-5.266,8.912-13.536,25.142-13.536c0.099,0,0.2,0,0.3,0.001
		c16.504,0.104,24.381,8.346,25.482,13.535c0.074,0.384,0.221,0.737,0.416,1.06c0.006,0.01,0.01,0.02,0.016,0.028
		c0.092,0.151,0.198,0.289,0.314,0.423c0.008,0.008,0.014,0.017,0.021,0.024c0.6,0.68,1.467,1.116,2.445,1.116h21.016
		L353.275,175.592z"/>
	<path fill="#FDBF07" d="M329.289,222.092c0.223-12.841-10.045-23.471-22.885-23.693l-0.411-0.004
		c-12.618,0-23.062,10.268-23.282,22.888c-0.223,12.841,10.042,23.471,22.884,23.694l0.411,0.003
		C318.627,244.979,329.07,234.713,329.289,222.092z M289.265,221.396c0.158-9.068,7.663-16.446,16.729-16.446l0.297,0.002
		c9.228,0.161,16.604,7.799,16.445,17.027c-0.158,9.068-7.662,16.447-16.729,16.447l-0.297-0.002
		C296.481,238.262,289.104,230.623,289.265,221.396z"/>
	<path fill="#1A237E" d="M310.959,231.41c0.697,0,1.399-0.221,1.994-0.679c1.436-1.104,1.705-3.161,0.602-4.596l-4.277-5.564v-6.103
		c0-1.811-1.467-3.277-3.277-3.277c-1.809,0-3.277,1.467-3.277,3.277v7.217c0,0.722,0.24,1.424,0.68,1.996l4.956,6.448
		C309.004,230.971,309.976,231.41,310.959,231.41z"/>
</g>
<g>
	<path fill="#EC6B00" d="M481.475,386.33l16.158-9.047c1.264-0.705,1.713-2.303,1.008-3.564c-3.101-5.536-8.171-9.535-14.279-11.259
		c-5.258-1.483-10.741-1.122-15.698,0.984l-4.571,2.561c-4.385,3.125-7.56,7.611-9.043,12.87
		c-1.723,6.106-0.964,12.519,2.135,18.055c0.479,0.858,1.37,1.34,2.286,1.34c0.434,0.001,0.874-0.107,1.278-0.333l16.157-9.045
		L481.475,386.33z"/>
	<path fill="#EC6B00" d="M460.634,391.998c-1.446-3.722-1.647-7.792-0.543-11.701c1.343-4.76,4.46-8.713,8.774-11.13
		c2.857-1.6,5.96-2.358,9.022-2.356c5.656,0.002,11.175,2.597,14.742,7.272L460.634,391.998z"/>
	<path fill="#1A237E" d="M563.56,433.945c0.007-17.668-8.568-33.375-21.773-43.173l-4.368-2.922
		c-8.059-4.839-17.483-7.631-27.549-7.633c-10.065-0.004-19.492,2.779-27.555,7.613l-4.37,2.919
		c-13.214,9.789-21.796,25.489-21.803,43.16c-0.004,15.787,6.838,30.006,17.714,39.847l-3.297,15.053
		c-0.309,1.414,0.586,2.809,1.999,3.12c0.188,0.041,0.375,0.061,0.562,0.061c1.203,0.002,2.288-0.835,2.556-2.06l2.735-12.485
		c8.84,6.405,19.696,10.188,31.421,10.191c11.728,0.005,22.587-3.771,31.431-10.171l2.726,12.489
		c0.268,1.223,1.351,2.06,2.556,2.059c0.186,0.001,0.373-0.019,0.562-0.059c1.412-0.311,2.309-1.705,1.999-3.118l-3.286-15.057
		C556.701,463.948,563.555,449.733,563.56,433.945z"/>
	<path fill="#EC6B00" d="M542.827,388.912l16.15,9.058c0.404,0.228,0.844,0.334,1.276,0.335c0.917,0,1.81-0.483,2.288-1.339
		c3.105-5.535,3.868-11.947,2.147-18.055c-1.479-5.258-4.65-9.747-9.033-12.877l-4.571-2.562
		c-10.992-4.665-24.008-0.399-29.982,10.254c-0.34,0.606-0.424,1.321-0.237,1.99c0.188,0.669,0.634,1.236,1.24,1.575l16.154,9.059
		L542.827,388.912z"/>
	<path fill="#EC6B00" d="M527.114,374.096c5.502-7.206,15.635-9.461,23.767-4.902c4.313,2.42,7.428,6.374,8.769,11.137
		c1.099,3.91,0.896,7.98-0.554,11.699L527.114,374.096z"/>
	<path fill="#EC6B00" d="M509.834,482.399c-26.728-0.01-48.463-21.76-48.455-48.488c0.01-26.727,21.762-48.465,48.488-48.455
		c26.728,0.01,48.464,21.762,48.455,48.488C558.311,460.672,536.561,482.409,509.834,482.399z"/>
	<path fill="#E1F0FB" d="M559.649,380.33c-1.341-4.763-4.455-8.717-8.769-11.137c-8.132-4.559-18.265-2.304-23.767,4.902
		l31.981,17.934C560.545,388.311,560.748,384.24,559.649,380.33z"/>
	<path fill="#E1F0FB" d="M477.888,366.811c-3.063-0.002-6.165,0.757-9.022,2.356c-4.314,2.417-7.432,6.37-8.774,11.13
		c-1.104,3.909-0.903,7.979,0.543,11.701l31.996-17.915C489.063,369.407,483.544,366.813,477.888,366.811z"/>
	<path fill="#E1F0FB" d="M509.867,385.456c-26.727-0.01-48.479,21.729-48.488,48.455c-0.008,26.729,21.728,48.479,48.455,48.488
		c26.727,0.01,48.477-21.728,48.488-48.455C558.331,407.218,536.595,385.466,509.867,385.456z"/>
	<path fill="#FDBF07" d="M509.864,396.156c-20.828-0.008-37.778,16.93-37.785,37.758c-0.007,20.829,16.931,37.778,37.759,37.786
		c20.827,0.008,37.777-16.932,37.784-37.76C547.63,413.113,530.689,396.163,509.864,396.156z M509.84,466.462
		c-17.938-0.005-32.528-14.604-32.523-32.544c0.006-17.939,14.607-32.531,32.546-32.525c17.939,0.007,32.53,14.607,32.521,32.546
		C542.379,451.878,527.778,466.469,509.84,466.462z"/>
	<path fill="#1A237E" d="M512.474,424.929l0.003-12.662c0.001-1.447-1.17-2.62-2.617-2.619c-1.445-0.001-2.619,1.17-2.618,2.616
		l-0.006,12.663c-3.066,0.893-5.489,3.312-6.384,6.379l-5.915-0.002c-1.448-0.001-2.62,1.17-2.621,2.617
		c0,1.448,1.172,2.621,2.618,2.621l5.916,0.003c1.135,3.897,4.737,6.757,8.998,6.759c5.171,0.001,9.377-4.203,9.378-9.373
		C519.229,429.671,516.372,426.066,512.474,424.929z M509.85,438.066c-2.281-0.002-4.138-1.858-4.137-4.141
		c0.001-2.28,1.856-4.137,4.14-4.136c2.28,0.001,4.137,1.858,4.135,4.14C513.986,436.21,512.13,438.066,509.85,438.066z"/>
</g>
<g>
	<path fill="#1A237E" d="M237.138,372.227l0.001-9.154c0-1.67-1.355-3.025-3.024-3.025l-82.723-0.003
		c-1.669-0.001-3.024,1.354-3.024,3.023l0,9.154c0,1.431,0.995,2.628,2.33,2.941l84.11,0.004
		C236.144,374.854,237.138,373.658,237.138,372.227z M154.417,369.197l0.001-3.106l76.673,0.006l0.001,3.108L154.417,369.197z"/>
	<path fill="#1A237E" d="M234.804,463.542l-84.109-0.005c-1.337,0.313-2.331,1.509-2.331,2.941v9.154
		c0,1.671,1.354,3.024,3.022,3.023l82.722,0.003c1.67,0.003,3.025-1.354,3.025-3.024l0.001-9.153
		C237.133,465.052,236.139,463.854,234.804,463.542z M231.084,472.614l-76.672-0.007v-3.106l76.673,0.006L231.084,472.614z"/>
	<path fill="#FDBF07" d="M200.639,401.711h-15.775c-1.252,0.001-2.377,0.773-2.825,1.944c-0.448,1.17-0.127,2.495,0.808,3.33
		l7.887,7.06c0.575,0.516,1.296,0.771,2.016,0.771c0.721,0,1.443-0.257,2.016-0.77l7.887-7.057c0.934-0.839,1.256-2.163,0.81-3.334
		C203.016,402.486,201.892,401.711,200.639,401.711z"/>
	<path fill="#FDBF07" d="M192.625,430.909l-7.67,4.924c-6.708,4.491-10.734,12.034-10.734,20.107l38.565,0.002
		c0-8.076-4.024-15.616-10.731-20.107l-7.67-4.929C193.844,430.583,193.168,430.582,192.625,430.909L192.625,430.909z"/>
	<path fill="#EC6B00" d="M234.748,375.16l-84.109-0.004c0.912,16.289,9.37,31.217,23.024,40.365l5.708,3.821l-5.708,3.828
		c-13.653,9.146-22.115,24.073-23.027,40.359l84.168,0.012c-0.912-16.288-9.431-31.222-23.084-40.372l-5.709-3.823l5.709-3.824
		C225.375,406.374,233.836,391.446,234.748,375.16z M198.874,416.92c-0.838,0.56-1.341,1.501-1.342,2.51
		c0.002,1.009,0.504,1.954,1.342,2.515l9.459,6.336c11.95,8.005,19.399,21.024,20.327,35.255l-71.984-0.004
		c0.929-14.23,8.38-27.246,20.332-35.252l9.459-6.336c0.838-0.562,1.341-1.505,1.341-2.514c0-1.008-0.502-1.951-1.341-2.513
		l-9.459-6.338c-11.951-8.004-19.458-21.19-20.384-35.423l72.037,0.004c-0.931,14.23-8.375,27.415-20.328,35.42L198.874,416.92
		L198.874,416.92z"/>
</g>
<g>
	<path fill="#EC6B00" d="M69.638,321.303c-0.687-1.343-2.333-1.875-3.675-1.188c-1.342,0.688-1.875,2.332-1.187,3.676
		c1.049,2.051,2.27,4.037,3.63,5.903c0.535,0.734,1.366,1.124,2.208,1.124c0.558,0,1.122-0.171,1.607-0.525
		c1.219-0.888,1.486-2.596,0.599-3.815C71.629,324.841,70.559,323.1,69.638,321.303z"/>
	<path fill="#EC6B00" d="M91.773,264.007c-0.543-1.406-2.125-2.106-3.531-1.564c-2.15,0.83-4.252,1.836-6.25,2.997
		c-1.306,0.756-1.748,2.427-0.991,3.731c0.507,0.874,1.422,1.361,2.365,1.361c0.465,0,0.937-0.118,1.367-0.369
		c1.75-1.015,3.591-1.897,5.475-2.624C91.615,266.996,92.316,265.415,91.773,264.007z"/>
	<path fill="#EC6B00" d="M116.129,340.531c-1.92,0.625-3.907,1.101-5.906,1.415c-1.489,0.234-2.506,1.632-2.272,3.123
		c0.211,1.346,1.373,2.306,2.693,2.306c0.142,0,0.285-0.011,0.429-0.033c2.281-0.36,4.551-0.903,6.745-1.616
		c1.435-0.467,2.219-2.007,1.752-3.441C119.104,340.849,117.563,340.064,116.129,340.531z"/>
	<path fill="#EC6B00" d="M143.146,318.059c-1.379-0.616-2.993,0.005-3.607,1.383c-0.822,1.843-1.799,3.64-2.904,5.338
		c-0.822,1.265-0.463,2.957,0.8,3.778c0.459,0.298,0.976,0.442,1.487,0.442c0.893,0,1.769-0.437,2.292-1.242
		c1.26-1.938,2.376-3.987,3.314-6.093C145.142,320.287,144.522,318.673,143.146,318.059z"/>
	<path fill="#EC6B00" d="M100.111,342.213c-2.016-0.208-4.026-0.578-5.975-1.098c-1.456-0.387-2.954,0.478-3.343,1.935
		c-0.388,1.458,0.478,2.954,1.935,3.343c2.225,0.593,4.52,1.015,6.82,1.253c0.096,0.01,0.189,0.015,0.283,0.015
		c1.382,0,2.569-1.046,2.714-2.451C102.702,343.71,101.611,342.369,100.111,342.213z"/>
	<path fill="#EC6B00" d="M130.065,332.469c-1.504,1.354-3.124,2.601-4.818,3.704c-1.264,0.823-1.622,2.514-0.798,3.779
		c0.523,0.804,1.398,1.241,2.291,1.241c0.511,0,1.027-0.143,1.487-0.442c1.932-1.258,3.78-2.679,5.495-4.224
		c1.121-1.01,1.211-2.736,0.2-3.857C132.912,331.549,131.185,331.459,130.065,332.469z"/>
	<path fill="#EC6B00" d="M142.875,303.599v0.091c0,2.031-0.159,4.07-0.471,6.061c-0.233,1.489,0.785,2.886,2.274,3.121
		c0.144,0.023,0.286,0.033,0.427,0.033c1.321,0,2.483-0.962,2.695-2.308c0.355-2.27,0.537-4.593,0.537-6.932v-0.065
		c0-1.508-1.223-2.73-2.731-2.73C144.098,300.868,142.875,302.091,142.875,303.599z"/>
	<path fill="#EC6B00" d="M134.201,279.259c0.54,0.664,1.327,1.007,2.12,1.007c0.605,0,1.216-0.201,1.722-0.613
		c1.17-0.952,1.347-2.672,0.394-3.842c-1.456-1.789-3.063-3.477-4.78-5.018c-1.122-1.007-2.849-0.914-3.856,0.207
		c-1.008,1.123-0.915,2.85,0.207,3.857C131.513,276.208,132.924,277.69,134.201,279.259z"/>
	<path fill="#EC6B00" d="M114.292,263.383c-0.463,1.436,0.325,2.975,1.761,3.438c1.923,0.622,3.814,1.401,5.617,2.318
		c0.396,0.202,0.819,0.297,1.235,0.297c0.996,0,1.955-0.546,2.436-1.493c0.684-1.345,0.148-2.989-1.196-3.672
		c-2.061-1.047-4.219-1.938-6.416-2.647C116.295,261.161,114.755,261.948,114.292,263.383z"/>
	<path fill="#EC6B00" d="M141.544,293.583c0.328,1.217,1.431,2.02,2.635,2.02c0.235,0,0.475-0.029,0.713-0.094
		c1.456-0.394,2.318-1.891,1.925-3.348c-0.602-2.228-1.384-4.426-2.329-6.533c-0.617-1.376-2.233-1.993-3.608-1.375
		c-1.377,0.616-1.992,2.232-1.375,3.608C140.333,289.707,141.019,291.632,141.544,293.583z"/>
	<path fill="#EC6B00" d="M84.798,337.251c-1.75-1.012-3.435-2.17-5.009-3.445c-1.171-0.95-2.892-0.768-3.84,0.404
		c-0.95,1.173-0.769,2.892,0.403,3.841c1.794,1.453,3.717,2.774,5.713,3.927c0.43,0.25,0.9,0.368,1.364,0.368
		c0.944,0,1.861-0.49,2.367-1.366C86.552,339.677,86.104,338.006,84.798,337.251z"/>
	<path fill="#EC6B00" d="M68.964,281.564c0.484,0.352,1.046,0.522,1.603,0.522c0.844,0,1.677-0.391,2.211-1.127
		c1.188-1.636,2.515-3.192,3.946-4.625c1.065-1.068,1.063-2.797-0.005-3.862c-1.067-1.065-2.796-1.063-3.862,0.005
		c-1.629,1.634-3.143,3.408-4.498,5.274C67.473,278.969,67.744,280.678,68.964,281.564z"/>
	<path fill="#EC6B00" d="M63.007,297.785c0.189,0.04,0.379,0.058,0.565,0.058c1.265,0,2.398-0.882,2.669-2.169
		c0.416-1.979,0.995-3.939,1.717-5.828c0.54-1.409-0.165-2.988-1.573-3.527c-1.41-0.539-2.988,0.165-3.528,1.573
		c-0.825,2.157-1.485,4.398-1.961,6.658C60.585,296.026,61.531,297.474,63.007,297.785z"/>
	<path fill="#EC6B00" d="M66.258,311.783c-0.418-1.972-0.685-3.999-0.792-6.024c-0.08-1.506-1.365-2.653-2.871-2.584
		c-1.507,0.079-2.664,1.365-2.583,2.871c0.122,2.311,0.426,4.624,0.904,6.874c0.273,1.283,1.406,2.163,2.668,2.163
		c0.188,0,0.379-0.019,0.57-0.06C65.63,314.707,66.572,313.257,66.258,311.783z"/>
	<path fill="#EC6B00" d="M108.951,262.565c0.12-1.502-1.001-2.819-2.504-2.94c-2.297-0.184-4.628-0.188-6.932-0.008
		c-1.504,0.116-2.626,1.429-2.51,2.934c0.078,1.007,0.692,1.843,1.542,2.251c0.418,0.202,0.895,0.3,1.392,0.26
		c2.017-0.156,4.058-0.153,6.07,0.009C107.513,265.191,108.83,264.07,108.951,262.565z"/>
	<path fill="#1A237E" d="M159.28,279.153l-30.602-30.602c-0.768-0.768-1.81-1.2-2.896-1.2H108.24H98.019H82.505
		c-1.087,0-2.129,0.432-2.896,1.2l-30.601,30.602c-0.769,0.768-1.2,1.811-1.2,2.896v43.277c0,1.086,0.431,2.128,1.2,2.896
		l30.601,30.601c0.767,0.77,1.81,1.2,2.896,1.2h43.277c1.086,0,2.128-0.431,2.896-1.2l30.602-30.601
		c0.769-0.768,1.2-1.811,1.2-2.896V282.05C160.48,280.964,160.049,279.921,159.28,279.153z M152.287,323.631l-28.202,28.202H84.201
		l-28.202-28.202v-39.885l28.202-28.202h12.505l11.533-0.001h15.846l28.202,28.203V323.631z"/>
	<path fill="#FDBF07" d="M108.334,255.695v-28.609c0-2.262-1.834-4.097-4.097-4.097c-2.262,0-4.096,1.834-4.096,4.097v7.759
		l-3.341,20.852L108.334,255.695z M96.801,255.696l-6.422,40.08c-0.239,1.49,0.775,2.891,2.264,3.129
		c0.146,0.023,0.292,0.035,0.436,0.035c1.317,0,2.478-0.957,2.693-2.3l4.37-27.273v34.474c0,2.262,1.834,4.096,4.096,4.096
		c2.263,0,4.097-1.834,4.097-4.096v-48.146L96.801,255.696z"/>
</g>
<g>
	<path fill="#FDBF07" d="M399.784,259.489c0,14.837,12.071,26.91,26.911,26.91c14.839,0,26.911-12.071,26.911-26.91
		c0-14.839-12.072-26.912-26.911-26.912C411.855,232.578,399.784,244.65,399.784,259.489z M445.595,259.489
		c0,10.419-8.479,18.899-18.899,18.899s-18.899-8.48-18.899-18.899c0-10.423,8.478-18.899,18.899-18.899
		C437.118,240.59,445.595,249.066,445.595,259.489z"/>
	<path fill="#1A237E" d="M488.928,235.495l-59.077-75.526c-0.76-0.97-1.923-1.538-3.155-1.538c-1.233,0-2.396,0.568-3.155,1.538
		l-59.076,75.526c-1.362,1.741-1.056,4.259,0.687,5.623c1.744,1.363,4.262,1.055,5.624-0.688l3.197-4.087l11.331,60.014h-7.359
		c-2.213,0-4.006,1.794-4.006,4.006c0,2.212,1.793,4.006,4.006,4.006h12.192h20.542v7.373c-3.08,1.494-5.208,4.651-5.208,8.297
		v15.222c0,5.079,4.133,9.212,9.214,9.212c5.079,0,9.213-4.133,9.213-9.212V320.04c0-3.646-2.128-6.803-5.207-8.297v-7.373h16.013
		v15.787c-3.079,1.494-5.207,4.649-5.207,8.294v15.223c0,5.08,4.132,9.212,9.214,9.212c5.08,0,9.213-4.132,9.213-9.212v-15.223
		c0-3.646-2.128-6.801-5.208-8.294V304.37h20.542h12.192c2.213,0,4.006-1.794,4.006-4.006c0-2.211-1.793-4.006-4.006-4.006h-7.359
		l11.331-60.014l3.196,4.087c0.79,1.01,1.969,1.538,3.158,1.538c0.864,0,1.733-0.277,2.466-0.851
		C489.982,239.754,490.289,237.236,488.928,235.495z M415.885,335.262c0,0.661-0.539,1.2-1.202,1.2s-1.201-0.539-1.201-1.2v-15.223
		c0-0.663,0.538-1.202,1.201-1.202s1.202,0.539,1.202,1.202V335.262z M439.91,343.674c0,0.662-0.539,1.201-1.202,1.201
		c-0.662,0-1.201-0.539-1.201-1.201v-15.225c0-0.661,0.539-1.2,1.201-1.2c0.663,0,1.202,0.539,1.202,1.2V343.674z M459.936,296.358
		h-66.479l-12.916-68.412l46.155-59.008l46.155,59.008L459.936,296.358z"/>
	<path fill="#EC6B00" d="M412.875,202.464v16.224c0,2.214,1.794,4.006,4.006,4.006h19.628c2.214,0,4.006-1.792,4.006-4.006v-16.224
		c0-7.62-6.198-13.82-13.819-13.82C419.075,188.644,412.875,194.844,412.875,202.464z M432.504,202.464v12.218h-11.617v-12.218
		c0-3.203,2.605-5.809,5.809-5.809C429.897,196.655,432.504,199.261,432.504,202.464z"/>
	<path fill="#1A237E" d="M423.891,249.935v2.783l-5.597-5.597c-1.095-1.096-2.871-1.096-3.966,0c-1.095,1.094-1.095,2.869,0,3.965
		l10.385,10.385c0.536,0.535,1.253,0.82,1.983,0.82c0.36,0,0.726-0.07,1.072-0.213c1.048-0.435,1.73-1.458,1.73-2.591v-9.553
		c0-1.547-1.255-2.804-2.804-2.804S423.891,248.388,423.891,249.935z"/>
</g>
<g>
	<g>
		<path fill="#FDBF07" d="M177.375,232.133c-1.094,0-1.976,0.881-1.976,1.976v2.703c0,1.094,0.882,1.976,1.976,1.976
			c1.095,0,1.977-0.882,1.977-1.976v-2.703C179.352,233.015,178.47,232.133,177.375,232.133z"/>
		<path fill="#FDBF07" d="M177.375,200.184c-8.196,0-14.871,6.665-14.871,14.87c0,8.196,6.665,14.871,14.871,14.871
			c8.196,0,14.871-6.665,14.871-14.871C192.246,206.858,185.571,200.184,177.375,200.184z M177.375,225.962
			c-6.016,0-10.908-4.893-10.908-10.909c0-6.015,4.892-10.908,10.908-10.908c6.016,0,10.908,4.893,10.908,10.908
			C188.284,221.07,183.392,225.962,177.375,225.962z"/>
		<path fill="#FDBF07" d="M177.375,197.975c1.095,0,1.977-0.882,1.977-1.977v-2.703c0-1.095-0.882-1.976-1.977-1.976
			c-1.094,0-1.976,0.881-1.976,1.976v2.703C175.399,197.093,176.281,197.975,177.375,197.975z"/>
		<path fill="#FDBF07" d="M199.134,213.078h-2.702c-1.096,0-1.977,0.882-1.977,1.976c0,1.095,0.881,1.976,1.977,1.976h2.702
			c1.095,0,1.977-0.881,1.977-1.976C201.11,213.959,200.229,213.078,199.134,213.078z"/>
		<path fill="#FDBF07" d="M158.32,213.078h-2.703c-1.094,0-1.976,0.882-1.976,1.976c0,1.095,0.882,1.976,1.976,1.976h2.703
			c1.095,0,1.976-0.881,1.976-1.976C160.296,213.959,159.415,213.078,158.32,213.078z"/>
		<path fill="#FDBF07" d="M192.246,202.984l1.908-1.909c0.775-0.775,0.775-2.024,0-2.8c-0.775-0.774-2.024-0.774-2.8,0l-1.908,1.909
			c-0.775,0.775-0.775,2.024,0,2.8C190.221,203.759,191.471,203.749,192.246,202.984z"/>
		<path fill="#FDBF07" d="M162.505,227.125l-1.908,1.909c-0.775,0.774-0.775,2.024,0,2.799c0.774,0.775,2.024,0.775,2.799,0
			l1.908-1.908c0.775-0.775,0.775-2.024,0-2.8C164.53,226.35,163.28,226.359,162.505,227.125z"/>
		<path fill="#FDBF07" d="M192.246,227.125c-0.775-0.775-2.025-0.775-2.8,0c-0.775,0.776-0.775,2.025,0,2.8l1.908,1.908
			c0.775,0.775,2.025,0.775,2.8,0c0.775-0.775,0.775-2.025,0-2.799L192.246,227.125z"/>
		<path fill="#FDBF07" d="M162.505,202.984c0.775,0.775,2.025,0.775,2.8,0c0.775-0.776,0.775-2.025,0-2.8l-1.908-1.909
			c-0.775-0.774-2.025-0.774-2.799,0c-0.775,0.775-0.775,2.025,0,2.8L162.505,202.984z"/>
	</g>
</g>
</svg>
